<svg xmlns="http://www.w3.org/2000/svg" viewBox="0 0 32 32" role="img" aria-label="Book">
  <rect width="32" height="32" rx="8" fill="#fffefb"/>
  <path fill="#2f6f5e" d="M15 5h2v22h-2V5z"/>
  <path fill="#2f6f5e" d="M6 7a2 2 0 012-2h7v20H8a2 2 0 01-2-2V7z" opacity="0.92"/>
  <path fill="#c6553b" d="M17 5h7a2 2 0 012 2v16a2 2 0 01-2 2h-7V5z" opacity="0.95"/>
  <path fill="#faf7f2" d="M8 8.5h6.5v13H8.5a.5.5 0 01-.5-.5V8.5z"/>
  <path fill="#faf7f2" d="M17.5 8.5H24v13h-5a.5.5 0 01-.5-.5V8.5h-1z"/>
</svg>
